<svg width="972" height="972" viewBox="0 0 972 972" fill="none" xmlns="http://www.w3.org/2000/svg">
<circle cx="486" cy="486" r="471.217" fill="#F9F7F6" stroke="#FB7E40" stroke-width="29.5665"/>
<path d="M772.426 558.068H199.574C199.574 558.068 236.532 842.646 493.391 842.646C742.859 842.646 772.426 558.068 772.426 558.068Z" fill="#FDCBB3"/>
<path d="M199.574 558.068V548.829H189.057L190.411 559.258L199.574 558.068ZM772.426 558.068L781.616 559.023L782.675 548.829H772.426V558.068ZM199.574 567.308H772.426V548.829H199.574V567.308ZM772.426 558.068C763.236 557.114 763.236 557.111 763.236 557.109C763.236 557.11 763.236 557.109 763.236 557.111C763.236 557.114 763.235 557.122 763.233 557.134C763.231 557.158 763.226 557.199 763.22 557.257C763.207 557.372 763.187 557.554 763.157 557.802C763.099 558.296 763.007 559.05 762.874 560.045C762.609 562.036 762.184 564.993 761.554 568.779C760.293 576.352 758.212 587.224 754.944 600.293C748.4 626.468 737.148 661.258 718.337 695.953C680.818 765.15 613.705 833.407 493.391 833.407V851.886C622.546 851.886 694.95 777.854 734.581 704.761C754.345 668.312 766.076 631.957 772.872 604.775C776.274 591.164 778.452 579.804 779.782 571.814C780.448 567.818 780.902 564.661 781.192 562.483C781.336 561.395 781.44 560.55 781.509 559.968C781.544 559.677 781.569 559.451 781.587 559.293C781.595 559.214 781.602 559.151 781.607 559.106C781.609 559.084 781.611 559.066 781.613 559.052C781.614 559.045 781.614 559.038 781.615 559.034C781.615 559.028 781.616 559.023 772.426 558.068ZM493.391 833.407C369.198 833.407 298.379 764.937 258.149 695.715C237.976 661.005 225.594 626.209 218.259 600.04C214.596 586.973 212.205 576.103 210.734 568.534C209.998 564.75 209.494 561.794 209.175 559.805C209.016 558.81 208.904 558.058 208.832 557.564C208.797 557.317 208.771 557.135 208.756 557.02C208.748 556.963 208.742 556.922 208.739 556.898C208.738 556.886 208.737 556.879 208.736 556.875C208.736 556.874 208.736 556.875 208.736 556.874C208.736 556.876 208.737 556.878 199.574 558.068C190.411 559.258 190.412 559.263 190.413 559.27C190.413 559.273 190.414 559.28 190.415 559.287C190.417 559.301 190.419 559.32 190.422 559.342C190.428 559.387 190.437 559.45 190.448 559.529C190.469 559.688 190.501 559.914 190.543 560.205C190.627 560.789 190.754 561.634 190.928 562.724C191.277 564.903 191.817 568.061 192.594 572.059C194.147 580.052 196.65 591.415 200.465 605.027C208.087 632.217 220.998 668.566 242.172 705C284.636 778.067 360.726 851.886 493.391 851.886V833.407Z" fill="#FB7E40"/>
<path d="M173.707 412.083C186.639 386.213 234.244 274.986 301.156 277.208C366.167 279.367 417.626 402.109 423.171 412.083" stroke="#FB7E40" stroke-width="18.4791" stroke-linecap="round" stroke-linejoin="round"/>
<path d="M524.806 412.083C537.738 386.213 585.343 274.986 652.255 277.208C717.266 279.367 768.725 402.109 774.27 412.083" stroke="#FB7E40" stroke-width="18.4791" stroke-linecap="round" stroke-linejoin="round"/>
</svg>
